<svg xmlns="http://www.w3.org/2000/svg" width="464.151" height="148.451" viewBox="0 0 464.151 148.451">
  <g id="Warstwa_1" data-name="Warstwa 1" transform="translate(0)">
    <path id="Path_1" data-name="Path 1" d="M50.6,34.044V0c4.714,1.563,9.126,3.015,13.552,4.487,4.767,1.6,4.762,1.6,4.762,6.727,0,17.5.034,35,0,52.51C68.839,79.187,60.038,91.96,45.96,97.168,23.579,105.449-.83,87.808-.021,63.936.855,39.2,24.62,23.944,48.113,33.043,48.776,33.3,49.429,33.57,50.6,34.044ZM34.207,80.779A16.047,16.047,0,1,0,22.721,75.95,16.028,16.028,0,0,0,34.207,80.779Z" transform="translate(0.04)" fill="rgba(255,255,255,0.88)"/>
    <path id="Path_2" data-name="Path 2" d="M190.723,106.026c4.506,8.794,16.741,9.927,25.511,2.488,2.047,1.936,4.123,3.915,6.211,5.885l6.292,5.957c-7.066,9-23.643,14.888-38.561,7.884-16.625-7.8-24.224-26.049-18-42.892,6.045-16.351,24.2-25.841,40.99-20.811,18.62,5.547,27.1,21.107,24.684,41.5Zm-.28-17.619h27.505c-3.455-4.839-7.769-7.381-13.353-7.506-5.885-.12-10.517,2.3-14.152,7.513Z" transform="translate(-84.317 -32.609)" fill="rgba(255,255,255,0.88)"/>
    <path id="Path_3" data-name="Path 3" d="M637,62.83h18.038c.082,1.268.16,2.512.232,3.664,3.117-.6,6.151-1.355,9.235-1.723a29.963,29.963,0,0,1,32.21,22.661,31.272,31.272,0,0,1,.969,7.391c.1,11.365.048,22.748.048,34.1,0,.484-.053.968-.093,1.587H679.423v-2.8c0-10.647.048-21.294,0-31.942-.043-7.032-3.929-11.727-10.377-12.821a11.971,11.971,0,0,0-13.857,11.614c-.034,11.045,0,22.089,0,33.129v2.789H637Z" transform="translate(-313.918 -32.421)" fill="rgba(255,255,255,0.88)"/>
    <path id="Path_4" data-name="Path 4" d="M317.54,63.748c6.338,0,12.531-.053,18.711.082.6,0,1.427,1.094,1.723,1.844q6.534,16.741,12.986,33.531c.349.9.726,1.786,1.312,3.218.484-1.079.774-1.743,1.036-2.42,4.381-11.248,8.8-22.472,13.068-33.764a3.328,3.328,0,0,1,3.828-2.555c5.547.165,11.1.058,16.94.058-.416,1.133-.711,2.028-1.065,2.9q-12.656,31.181-25.35,62.377a2.789,2.789,0,0,1-3.132,2.145c-3.785-.141-7.58.029-11.365-.106a2.8,2.8,0,0,1-2.1-1.331q-13.238-32.394-26.315-64.857a10.769,10.769,0,0,1-.276-1.127Z" transform="translate(-157.472 -32.865)" fill="rgba(255,255,255,0.88)"/>
    <path id="Path_5" data-name="Path 5" d="M840.716,109.383c-18.145.44-35.008-14.492-36.818-32.428-.261-2.565-.387-5.15-.4-7.745-.039-13.877,0-27.759-.053-41.624a2.662,2.662,0,0,1,2.169-3.093c5.286-1.621,10.513-3.446,16.117-5.324V40.756h19.1v17H822.074c0,6.084-.615,11.945.141,17.619,1.244,9.278,8.171,14.888,18.5,15.948Z" transform="translate(-399.809 -9.892)" fill="rgba(255,255,255,0.88)"/>
    <path id="Path_6" data-name="Path 6" d="M509.772,64.5a34.014,34.014,0,1,0,15.781,56.087l-12.627-11.959c-9.017,7.367-22.424,6.06-25.317-2.535h47.054C537.059,85.59,527.2,69.235,509.772,64.5Zm-22.6,23.949a15.621,15.621,0,0,1,13.111-7.453c5.987-.213,10.609,2.334,14.312,7.453Z" transform="translate(-231.521 -32.684)" fill="rgba(255,255,255,0.88)"/>
  </g>
  <path id="Path_7" data-name="Path 7" d="M192.611,426.92H656.761s-341.293,5.6-397.467,12.089-66.683,17.707-66.683,17.707Z" transform="translate(-192.61 -308.265)" fill="rgba(255,255,255,0.88)"/>
</svg>
